HIERARCHY
ROOT Hips
{
  OFFSET 373.837 88.1643 177.628
  CHANNELS 6 Xposition Yposition Zposition Zrotation Xrotation Yrotation
  JOINT RightUpLeg
  {
    OFFSET -9.27602 -1.55371 -0.0617006
    CHANNELS 3 Zrotation Xrotation Yrotation
    JOINT RightLeg
    {
      OFFSET 0.0569767 -41.8713 0.0644562
      CHANNELS 3 Zrotation Xrotation Yrotation
      JOINT RightFoot
      {
        OFFSET -0.463049 -43.0064 -0.0336586
        CHANNELS 3 Zrotation Xrotation Yrotation
        End Site
        {
          OFFSET 0 -7.69 17.5
        }
      }
    }
  }
  JOINT LeftUpLeg
  {
    OFFSET 9.29312 -1.63815 0.0236341
    CHANNELS 3 Zrotation Xrotation Yrotation
    JOINT LeftLeg
    {
      OFFSET 0.0670365 -41.8776 -0.0578197
      CHANNELS 3 Zrotation Xrotation Yrotation
      JOINT LeftFoot
      {
        OFFSET 0.591956 -40.8352 0.210268
        CHANNELS 3 Zrotation Xrotation Yrotation
        End Site
        {
          OFFSET 0 -7.69 17.5
        }
      }
    }
  }
  JOINT Spine
  {
    OFFSET 0.0229142 14.2949 0.0394214
    CHANNELS 3 Zrotation Xrotation Yrotation
    JOINT Spine1
    {
      OFFSET 0.0328969 9.71943 0.0194292
      CHANNELS 3 Zrotation Xrotation Yrotation
      JOINT Spine2
      {
        OFFSET 0.0292955 10.1244 -0.00440821
        CHANNELS 3 Zrotation Xrotation Yrotation
        JOINT Spine3
        {
          OFFSET 0.024556 9.71184 0.0101567
          CHANNELS 3 Zrotation Xrotation Yrotation
          JOINT Neck
          {
            OFFSET 0.152325 10.3757 0.0664015
            CHANNELS 3 Zrotation Xrotation Yrotation
            JOINT Head
            {
              OFFSET 0.134553 9.4858 0.0499874
              CHANNELS 3 Zrotation Xrotation Yrotation
              End Site
              {
                OFFSET 0 15.95 0
              }
            }
          }
          JOINT RightShoulder
          {
            OFFSET -3.19519 6.89024 -0.0330231
            CHANNELS 3 Zrotation Xrotation Yrotation
            JOINT RightArm
            {
              OFFSET -12.6524 0.0927817 0.0603028
              CHANNELS 3 Zrotation Xrotation Yrotation
              JOINT RightForeArm
              {
                OFFSET -26.4983 -0.141459 0.202928
                CHANNELS 3 Zrotation Xrotation Yrotation
                JOINT RightHand
                {
                  OFFSET -25.9883 -0.0240172 0.0141731
                  CHANNELS 3 Zrotation Xrotation Yrotation
                  JOINT RightHandThumb1
                  {
                    OFFSET -2.48905 0.190105 3.12053
                    CHANNELS 3 Zrotation Xrotation Yrotation
                    JOINT RightHandThumb2
                    {
                      OFFSET -3.68274 0 0
                      CHANNELS 3 Zrotation Xrotation Yrotation
                      JOINT RightHandThumb3
                      {
                        OFFSET -2.55832 0 0
                        CHANNELS 3 Zrotation Xrotation Yrotation
                        End Site
                        {
                          OFFSET -2.194 0 0
                        }
                      }
                    }
                  }
                  JOINT RightInHandIndex
                  {
                    OFFSET -3.22368 0.508421 1.97842
                    CHANNELS 3 Zrotation Xrotation Yrotation
                    JOINT RightHandIndex1
                    {
                      OFFSET -5.21684 -0.091368 0.999158
                      CHANNELS 3 Zrotation Xrotation Yrotation
                      JOINT RightHandIndex2
                      {
                        OFFSET -3.61937 0 0
                        CHANNELS 3 Zrotation Xrotation Yrotation
                        JOINT RightHandIndex3
                        {
                          OFFSET -2.0521 0 0
                          CHANNELS 3 Zrotation Xrotation Yrotation
                          End Site
                          {
                            OFFSET -1.805 0 0
                          }
                        }
                      }
                    }
                  }
                  JOINT RightInHandMiddle
                  {
                    OFFSET -3.38211 0.517263 0.756737
                    CHANNELS 3 Zrotation Xrotation Yrotation
                    JOINT RightHandMiddle1
                    {
                      OFFSET -5.17411 -0.084 0.313895
                      CHANNELS 3 Zrotation Xrotation Yrotation
                      JOINT RightHandMiddle2
                      {
                        OFFSET -3.94947 0 0
                        CHANNELS 3 Zrotation Xrotation Yrotation
                        JOINT RightHandMiddle3
                        {
                          OFFSET -2.47579 0 0
                          CHANNELS 3 Zrotation Xrotation Yrotation
                          End Site
                          {
                            OFFSET -1.975 0 0
                          }
                        }
                      }
                    }
                  }
                  JOINT RightInHandRing
                  {
                    OFFSET -3.36516 0.537895 -0.128947
                    CHANNELS 3 Zrotation Xrotation Yrotation
                    JOINT RightHandRing1
                    {
                      OFFSET -4.63474 -0.022105 -0.478947
                      CHANNELS 3 Zrotation Xrotation Yrotation
                      JOINT RightHandRing2
                      {
                        OFFSET -3.44238 0 0
                        CHANNELS 3 Zrotation Xrotation Yrotation
                        JOINT RightHandRing3
                        {
                          OFFSET -2.3881 0 0
                          CHANNELS 3 Zrotation Xrotation Yrotation
                          End Site
                          {
                            OFFSET -1.857 0 0
                          }
                        }
                      }
                    }
                  }
                  JOINT RightInHandPinky
                  {
                    OFFSET -3.16105 0.469368 -1.20179
                    CHANNELS 3 Zrotation Xrotation Yrotation
                    JOINT RightHandPinky1
                    {
                      OFFSET -4.14105 -0.022105 -1.09053
                      CHANNELS 3 Zrotation Xrotation Yrotation
                      JOINT RightHandPinky2
                      {
                        OFFSET -2.75653 0 0
                        CHANNELS 3 Zrotation Xrotation Yrotation
                        JOINT RightHandPinky3
                        {
                          OFFSET -1.74189 0 0
                          CHANNELS 3 Zrotation Xrotation Yrotation
                          End Site
                          {
                            OFFSET -1.645 0 0
                          }
                        }
                      }
                    }
                  }
                }
              }
            }
          }
          JOINT LeftShoulder
          {
            OFFSET 3.28609 6.87948 -0.0751467
            CHANNELS 3 Zrotation Xrotation Yrotation
            JOINT LeftArm
            {
              OFFSET 12.831 -0.0663252 -0.1321
              CHANNELS 3 Zrotation Xrotation Yrotation
              JOINT LeftForeArm
              {
                OFFSET 26.5106 -0.082189 -0.0903645
                CHANNELS 3 Zrotation Xrotation Yrotation
                JOINT LeftHand
                {
                  OFFSET 25.9965 -0.0307163 -0.0535747
                  CHANNELS 3 Zrotation Xrotation Yrotation
                  JOINT LeftHandThumb1
                  {
                    OFFSET 2.48905 0.190105 3.12053
                    CHANNELS 3 Zrotation Xrotation Yrotation
                    JOINT LeftHandThumb2
                    {
                      OFFSET 3.68274 0 0
                      CHANNELS 3 Zrotation Xrotation Yrotation
                      JOINT LeftHandThumb3
                      {
                        OFFSET 2.55832 0 0
                        CHANNELS 3 Zrotation Xrotation Yrotation
                        End Site
                        {
                          OFFSET 2.194 0 0
                        }
                      }
                    }
                  }
                  JOINT LeftInHandIndex
                  {
                    OFFSET 3.22368 0.508421 1.97842
                    CHANNELS 3 Zrotation Xrotation Yrotation
                    JOINT LeftHandIndex1
                    {
                      OFFSET 5.21684 -0.091368 0.999158
                      CHANNELS 3 Zrotation Xrotation Yrotation
                      JOINT LeftHandIndex2
                      {
                        OFFSET 3.61937 0 0
                        CHANNELS 3 Zrotation Xrotation Yrotation
                        JOINT LeftHandIndex3
                        {
                          OFFSET 2.0521 0 0
                          CHANNELS 3 Zrotation Xrotation Yrotation
                          End Site
                          {
                            OFFSET 1.805 0 0
                          }
                        }
                      }
                    }
                  }
                  JOINT LeftInHandMiddle
                  {
                    OFFSET 3.38211 0.517263 0.756737
                    CHANNELS 3 Zrotation Xrotation Yrotation
                    JOINT LeftHandMiddle1
                    {
                      OFFSET 5.17411 -0.084 0.313895
                      CHANNELS 3 Zrotation Xrotation Yrotation
                      JOINT LeftHandMiddle2
                      {
                        OFFSET 3.94947 0 0
                        CHANNELS 3 Zrotation Xrotation Yrotation
                        JOINT LeftHandMiddle3
                        {
                          OFFSET 2.47579 0 0
                          CHANNELS 3 Zrotation Xrotation Yrotation
                          End Site
                          {
                            OFFSET 1.975 0 0
                          }
                        }
                      }
                    }
                  }
                  JOINT LeftInHandRing
                  {
                    OFFSET 3.36516 0.537895 -0.128947
                    CHANNELS 3 Zrotation Xrotation Yrotation
                    JOINT LeftHandRing1
                    {
                      OFFSET 4.63474 -0.022105 -0.478947
                      CHANNELS 3 Zrotation Xrotation Yrotation
                      JOINT LeftHandRing2
                      {
                        OFFSET 3.44238 0 0
                        CHANNELS 3 Zrotation Xrotation Yrotation
                        JOINT LeftHandRing3
                        {
                          OFFSET 2.3881 0 0
                          CHANNELS 3 Zrotation Xrotation Yrotation
                          End Site
                          {
                            OFFSET 1.857 0 0
                          }
                        }
                      }
                    }
                  }
                  JOINT LeftInHandPinky
                  {
                    OFFSET 3.16105 0.469368 -1.20179
                    CHANNELS 3 Zrotation Xrotation Yrotation
                    JOINT LeftHandPinky1
                    {
                      OFFSET 4.14105 -0.022105 -1.09053
                      CHANNELS 3 Zrotation Xrotation Yrotation
                      JOINT LeftHandPinky2
                      {
                        OFFSET 2.75653 0 0
                        CHANNELS 3 Zrotation Xrotation Yrotation
                        JOINT LeftHandPinky3
                        {
                          OFFSET 1.74189 0 0
                          CHANNELS 3 Zrotation Xrotation Yrotation
                          End Site
                          {
                            OFFSET 1.645 0 0
                          }
                        }
                      }
                    }
                  }
                }
              }
            }
          }
        }
      }
    }
  }
}
MOTION
Frames: 3
Frame Time: 0.00833333
6.000506895528908444e+02 -1.563159271556159927e-02 1.687743308178735191e-01 -1.017250124896176694e-01 -1.565288821463744484e-01 -4.502807413081476584e-01 2.931125465612511305e-01 -9.744947681922877525e-02 2.622836984188444687e-01 -3.294635821596739178e-03 -6.576719525403953992e-02 -5.169679230057025454e-03 1.014618091621242446e-01 1.775144797331580093e-01 3.555914678911909488e-01 -8.940954867968316233e-02 1.139737475975245579e-01 6.821153609698535347e-02 5.618710570201150903e-03 -1.015544858105081327e-01 4.083636151549603910e-01 9.759914986299852990e-02 9.741741633160511116e-02 1.103052268544572334e-01 -1.286290071987097605e-01 -2.675861948269137730e-02 1.660252096424412183e-01 -3.028110314318584531e-02 -8.138124241815225882e-03 4.076485574274604784e-02 -5.043526755593576855e-02 -1.499708986144183270e-02 6.260608473551051989e-02 -6.448469549087292637e-04 -1.548073901814042003e-02 1.708064959632160651e-02 3.874777344346543029e-02 5.883903756230569188e-02 -1.251512071211501563e-02 3.055842558116532437e-02 -1.393099732415592484e-01 2.784433982447392930e-01 1.273638782223747157e-01 -3.483532945989770702e-01 1.194568790599614544e-01 8.885753723010794691e-02 -3.074716046713197870e-01 1.234902407202947000e-01 -2.842448716794175656e+00 1.495550152963635693e+00 -3.460251821014843632e+00 6.247920881250502712e-01 -5.125504567962168440e-02 7.661178825395299485e-01 0.000000000000000000e+00 0.000000000000000000e+00 0.000000000000000000e+00 4.864873949607023994e-15 -8.368441409437432425e-16 0.000000000000000000e+00 4.942183585146948535e-15 -1.830816124445573661e-16 0.000000000000000000e+00 3.062991853324024934e-15 -8.057664099965761776e-16 -3.866477496883017217e-16 0.000000000000000000e+00 0.000000000000000000e+00 0.000000000000000000e+00 0.000000000000000000e+00 4.117936482130400775e-15 1.030512609026793443e-14 0.000000000000000000e+00 -1.639890138554060247e-15 1.687992369263227195e-15 3.062991853324024934e-15 -8.057664099965761776e-16 -3.866477496883017217e-16 0.000000000000000000e+00 2.387068698180420330e-15 5.955070501040600481e-15 0.000000000000000000e+00 5.552049888691416213e-15 1.102664406703647963e-14 0.000000000000000000e+00 -1.569703621537657720e-15 -1.478391353920536799e-14 3.062991853324024934e-15 -8.057664099965761776e-16 -3.866477496883017217e-16 0.000000000000000000e+00 0.000000000000000000e+00 0.000000000000000000e+00 0.000000000000000000e+00 2.582707250865371949e-15 1.173967674280884386e-14 0.000000000000000000e+00 1.617780415218230437e-15 1.090425973575722784e-14 3.062991853324024934e-15 -8.057664099965761776e-16 -3.866477496883017217e-16 0.000000000000000000e+00 0.000000000000000000e+00 0.000000000000000000e+00 0.000000000000000000e+00 -1.188153060681121468e-15 9.329507214571190320e-15 0.000000000000000000e+00 -1.341785343738865926e-15 -6.652662921667119254e-15 1.152144243068414925e-01 -1.591444480525233407e-01 -3.891085662422111291e-01 -1.249551513987593176e-01 -4.619175492306661357e-01 3.755451933657390495e-01 7.105617917242718073e-02 -4.566395670549036057e-01 -1.479117401344884897e-01 -5.983270102277632452e-02 -4.602026729810950595e-02 -8.700762121934570159e-02 0.000000000000000000e+00 0.000000000000000000e+00 0.000000000000000000e+00 6.234467395676406604e-15 2.402166669506808452e-15 0.000000000000000000e+00 2.889764782338700990e-15 -1.945003590628388844e-15 0.000000000000000000e+00 8.011348847771131412e-16 5.677429408485767832e-16 3.596963003778357113e-16 0.000000000000000000e+00 0.000000000000000000e+00 0.000000000000000000e+00 0.000000000000000000e+00 -2.248904537141412913e-15 -9.437625984660506034e-16 0.000000000000000000e+00 7.079259354080373073e-16 -1.652880562119390634e-15 8.011348847771131412e-16 5.677429408485767832e-16 3.596963003778357113e-16 0.000000000000000000e+00 2.848112848453468100e-15 -2.220041010838855256e-15 0.000000000000000000e+00 -8.346122993857553765e-16 -4.986679721988215106e-15 0.000000000000000000e+00 7.395210113675551151e-16 -4.058168149837116562e-15 8.011348847771131412e-16 5.677429408485767832e-16 3.596963003778357113e-16 0.000000000000000000e+00 0.000000000000000000e+00 0.000000000000000000e+00 0.000000000000000000e+00 -9.063107737469342278e-17 -2.369594671880905374e-15 0.000000000000000000e+00 -9.588824170293713740e-16 -4.792264093004411811e-15 8.011348847771131412e-16 5.677429408485767832e-16 3.596963003778357113e-16 0.000000000000000000e+00 0.000000000000000000e+00 0.000000000000000000e+00 0.000000000000000000e+00 1.967491086758886429e-16 -5.058181448843480432e-15 0.000000000000000000e+00 1.960510771584124442e-15 -4.554570215047031229e-15
6.000439658456713232e+02 -1.422271498683709036e-02 1.240313089154356646e-01 -8.548978030599546640e-02 -1.300952379546873039e-01 -3.725200544025844551e-01 2.798283666689322935e-01 -8.286810927223021983e-02 2.747916128917026746e-01 4.785931485353578721e-04 -5.089827354335317577e-02 8.957801346279263555e-03 7.726742489451096652e-02 1.317555255123893654e-01 2.531642020484078937e-01 -6.755819681939495558e-02 8.777855788284959215e-02 9.172339085424803529e-02 3.339659583407176419e-02 -6.295322819986493013e-02 2.748662154509226574e-01 9.017484816118895297e-02 7.011984991497222097e-02 1.073953372545826956e-01 -1.774154003996769868e-01 8.807625217078948049e-03 3.010202242371154413e-01 -3.894061251710316529e-02 2.650043751971005793e-03 7.324394452500594677e-02 -6.471946624459817832e-02 1.142531719574960613e-03 1.154648547401220110e-01 5.898582558247671484e-03 -1.076753602692616732e-02 8.886473896879956355e-04 2.841817195344492966e-02 3.773457096314303955e-02 1.004928130945862731e-02 1.368808975027392960e-01 -8.487342234925122908e-02 -4.968607939225742898e-02 1.729897227971326779e-01 -3.832827825650810816e-01 -9.223919844584303751e-02 4.826769789323046012e-02 -2.368140944048820196e-02 1.703860716775389972e-01 -2.746406265105978406e+00 1.142496014140240046e+00 -3.338156442747729269e+00 6.570373941169016518e-01 -6.069301287312161425e-02 8.300040080590942448e-01 0.000000000000000000e+00 0.000000000000000000e+00 0.000000000000000000e+00 5.279807362545874806e-15 -9.853707220990872247e-16 0.000000000000000000e+00 4.312079815609565131e-15 -8.349835697787744704e-16 0.000000000000000000e+00 2.923739774111357752e-15 -1.283913155957466824e-16 -1.031883097289344902e-16 0.000000000000000000e+00 0.000000000000000000e+00 0.000000000000000000e+00 0.000000000000000000e+00 2.705335168759023562e-15 7.601971254751898236e-15 0.000000000000000000e+00 -7.323359209817385099e-15 -3.443712115012266980e-14 2.923739774111357752e-15 -1.283913155957466824e-16 -1.031883097289344902e-16 0.000000000000000000e+00 2.167321583642469378e-15 4.840456524310020841e-15 0.000000000000000000e+00 4.458706354550727241e-15 7.832031847788196573e-15 0.000000000000000000e+00 -3.208879142676499292e-15 -2.418627283274404274e-14 2.923739774111357752e-15 -1.283913155957466824e-16 -1.031883097289344902e-16 0.000000000000000000e+00 0.000000000000000000e+00 0.000000000000000000e+00 0.000000000000000000e+00 2.746192730972953491e-15 9.492186379028415230e-15 0.000000000000000000e+00 -7.298690247771159729e-16 2.165963661489696696e-15 2.923739774111357752e-15 -1.283913155957466824e-16 -1.031883097289344902e-16 0.000000000000000000e+00 0.000000000000000000e+00 0.000000000000000000e+00 0.000000000000000000e+00 -9.869921028634904469e-16 7.029834080883420222e-15 0.000000000000000000e+00 -1.941431158217894843e-15 -1.222182372802713499e-14 1.413307983846389115e-01 -2.181792983317031032e-01 -4.424339524673959190e-01 -2.750503007535742839e-01 -4.216528642816846917e-01 5.212724652617016785e-01 -8.036313011769373460e-02 -2.481619472292730111e-01 -3.811649140170671468e-01 -5.624786659969109592e-02 -1.186047042849253941e-01 -7.125811160541754841e-02 0.000000000000000000e+00 0.000000000000000000e+00 0.000000000000000000e+00 4.126511560149944106e-15 2.505094501227138441e-15 0.000000000000000000e+00 2.356364037364577784e-15 -6.484362759116045280e-16 0.000000000000000000e+00 8.681430694607732224e-16 3.241076383794917406e-16 3.531038632698861907e-16 0.000000000000000000e+00 0.000000000000000000e+00 0.000000000000000000e+00 0.000000000000000000e+00 -2.686910363809840074e-15 1.964476399894380381e-15 0.000000000000000000e+00 6.496360781549032097e-16 1.106514057214746089e-15 8.681430694607732224e-16 3.241076383794917406e-16 3.531038632698861907e-16 0.000000000000000000e+00 2.228657143490280298e-15 3.843596091163916926e-16 0.000000000000000000e+00 -1.139156220133970913e-15 -1.775934238498072609e-15 0.000000000000000000e+00 2.332718543974056252e-16 -1.230124979819743952e-15 8.681430694607732224e-16 3.241076383794917406e-16 3.531038632698861907e-16 0.000000000000000000e+00 0.000000000000000000e+00 0.000000000000000000e+00 0.000000000000000000e+00 -9.624063691834976612e-16 1.167974731693056688e-15 0.000000000000000000e+00 -1.579429459068600023e-15 -1.757159326918602278e-15 8.681430694607732224e-16 3.241076383794917406e-16 3.531038632698861907e-16 0.000000000000000000e+00 0.000000000000000000e+00 0.000000000000000000e+00 0.000000000000000000e+00 -2.292050710536753296e-16 -1.197794897542236392e-15 0.000000000000000000e+00 1.321307376120699038e-15 -1.273830207151826571e-15
6.000330250987276486e+02 -1.194566700030855882e-02 8.232860365480697273e-02 -7.535957110676205772e-02 -1.122569019413817981e-01 -3.074529054601095046e-01 2.802373187835830448e-01 -6.384932769069842640e-02 3.147400945291953245e-01 -1.056676485793220203e-04 -3.848618726812955138e-02 8.458395626706324485e-03 6.020698843624323199e-02 9.066944611698220247e-02 1.633572407468943943e-01 -4.979195765067370716e-02 7.414493095795672561e-02 1.010234990643812392e-01 5.012179720232416702e-02 -4.050373862294943950e-02 1.880259432244850704e-01 7.637550759601220707e-02 5.748453602532532791e-02 9.026522623785829258e-02 -2.146403431969791664e-01 3.689462772715212946e-02 4.012982438418360442e-01 -4.547383850122849874e-02 1.130955004893080366e-02 9.720308582297861044e-02 -7.553698692526954195e-02 1.419793051280912773e-02 1.544710648199805469e-01 1.106199589297440777e-02 -6.948505253748268710e-03 -1.199297570342808955e-02 1.901115285882322078e-02 1.890570755867105115e-02 2.914605285821979253e-02 2.174742124703899770e-01 -3.679493893382443370e-02 -3.106781689945482539e-01 2.088032619802204226e-01 -3.853868231903482822e-01 -3.132575950029559131e-01 6.197080097193981806e-03 2.474958257782743365e-01 2.351005398114696388e-01 -2.591850755601670109e+00 7.720140014263700001e-01 -3.129327291063976446e+00 6.591090134332209249e-01 -7.567868718760524527e-02 8.796678549426065752e-01 0.000000000000000000e+00 0.000000000000000000e+00 0.000000000000000000e+00 5.440645881293341909e-15 -1.115407916756900615e-15 0.000000000000000000e+00 3.091635946831237076e-15 -1.510265938230154397e-15 0.000000000000000000e+00 2.777684728672893128e-15 4.788996333739427278e-16 1.626057806910313201e-16 0.000000000000000000e+00 0.000000000000000000e+00 0.000000000000000000e+00 0.000000000000000000e+00 1.471960795992723680e-15 4.394144756756964397e-15 0.000000000000000000e+00 -1.367875266857018367e-14 -7.337140376830051469e-14 2.777684728672893128e-15 4.788996333739427278e-16 1.626057806910313201e-16 0.000000000000000000e+00 1.855610966369825423e-15 3.500074596087896041e-15 0.000000000000000000e+00 3.032316557250595872e-15 3.959896837424616148e-15 0.000000000000000000e+00 -5.291931070229484954e-15 -3.635986211661065788e-14 2.777684728672893128e-15 4.788996333739427278e-16 1.626057806910313201e-16 0.000000000000000000e+00 0.000000000000000000e+00 0.000000000000000000e+00 0.000000000000000000e+00 3.049631523020176398e-15 6.736613608762051395e-15 0.000000000000000000e+00 -2.065293800096634066e-15 -2.478623507236987653e-15 2.777684728672893128e-15 4.788996333739427278e-16 1.626057806910313201e-16 0.000000000000000000e+00 0.000000000000000000e+00 0.000000000000000000e+00 0.000000000000000000e+00 -7.518253832463546878e-16 4.374474112747771658e-15 0.000000000000000000e+00 -1.407584399231114122e-15 -1.312004260274627135e-14 1.610864673952780435e-01 -2.631216388676942408e-01 -4.867137979562274896e-01 -3.917439505987027615e-01 -3.708912738610929960e-01 6.154333050452353016e-01 -1.811524266578815323e-01 -6.110477464059985153e-02 -5.361482607509526765e-01 -4.737607025540320482e-02 -2.149805262968747521e-01 -6.669799286155157769e-02 0.000000000000000000e+00 0.000000000000000000e+00 0.000000000000000000e+00 2.060371856584484766e-15 2.400718563872080713e-15 0.000000000000000000e+00 1.329796874381112000e-15 5.088197046704674642e-16 0.000000000000000000e+00 9.033058286550781827e-16 1.010572651256710851e-16 3.794216478907190687e-16 0.000000000000000000e+00 0.000000000000000000e+00 0.000000000000000000e+00 0.000000000000000000e+00 -3.021170401840903627e-15 4.297430822079828571e-15 0.000000000000000000e+00 6.586994964753573723e-16 3.238803340588747287e-15 9.033058286550781827e-16 1.010572651256710851e-16 3.794216478907190687e-16 0.000000000000000000e+00 1.695785481520854717e-15 2.817102733158040811e-15 0.000000000000000000e+00 -1.295488026674423175e-15 1.210020472959234391e-15 0.000000000000000000e+00 -2.335511496980979111e-16 1.581506832408983116e-15 9.033058286550781827e-16 1.010572651256710851e-16 3.794216478907190687e-16 0.000000000000000000e+00 0.000000000000000000e+00 0.000000000000000000e+00 0.000000000000000000e+00 -1.858249893807234611e-15 4.167867427755627703e-15 0.000000000000000000e+00 -2.117846802713353421e-15 7.834151362989323575e-16 9.033058286550781827e-16 1.010572651256710851e-16 3.794216478907190687e-16 0.000000000000000000e+00 0.000000000000000000e+00 0.000000000000000000e+00 0.000000000000000000e+00 -4.694407821867442703e-16 2.561521315754692991e-15 0.000000000000000000e+00 5.619620068746787344e-16 1.759662418770779030e-15
